<svg xmlns="http://www.w3.org/2000/svg" width="20" height="20" viewBox="0 0 20 20">
	<title>Instagram</title>
	<path fill-rule="evenodd"
		d="M17 15.367C17 16.3 16.3 17 15.367 17H4.633C3.7 17 3 16.3 3 15.367V4.633C3 3.7 3.7 3 4.633 3H15.25C16.3 3 17 3.7 17 4.633v10.734zm-3.85-8.05c-.233 0-.467-.234-.35-.467V4.983c0-.233.117-.35.35-.35h1.867c.116 0 .35.117.35.35v1.984c0 .233-.117.35-.35.35H13.15zM14.317 10c0-.35-.117-.7-.234-1.167h1.284V14.9c0 .233-.117.35-.35.35H4.983c-.116 0-.35-.117-.35-.35V8.833H5.8c-.117.35-.117.817-.117 1.167 0 2.333 1.984 4.2 4.317 4.2 2.45 0 4.317-1.867 4.317-4.2zM10 12.683a2.683 2.683 0 1 1 0-5.366 2.683 2.683 0 0 1 0 5.366z">
	</path>
</svg>