<svg xmlns="http://www.w3.org/2000/svg" width="20" height="20" viewBox="0 0 20 20">
	<title>Twitter</title>
	<path fill-rule="evenodd"
		d="M15.575 8.128c0-.121-.002-.242-.008-.362A5.767 5.767 0 0 0 17 6.315a5.844 5.844 0 0 1-1.65.44 2.826 2.826 0 0 0 1.263-1.55 5.843 5.843 0 0 1-1.823.68A2.903 2.903 0 0 0 12.693 5C11.107 5 9.82 6.255 9.82 7.803c0 .22.026.434.075.639a8.223 8.223 0 0 1-5.92-2.929 2.742 2.742 0 0 0-.39 1.41c0 .972.508 1.83 1.279 2.332a2.905 2.905 0 0 1-1.301-.35l-.001.035c0 1.358.99 2.491 2.304 2.748a2.947 2.947 0 0 1-1.297.049c.366 1.113 1.426 1.924 2.684 1.946a5.855 5.855 0 0 1-3.568 1.2c-.232 0-.46-.013-.685-.039a8.278 8.278 0 0 0 4.403 1.26c5.283 0 8.172-4.272 8.172-7.976z">
	</path>
</svg>